{
    "asset" : {
        "generator" : "Khronos glTF Blender I/O v1.3.48",
        "version" : "2.0"
    },
    "scene" : 0,
    "scenes" : [
        {
            "name" : "Scene",
            "nodes" : [
                1,
                2,
                3,
                10,
                11
            ]
        }
    ],
    "nodes" : [
        {
            "mesh" : 0,
            "name" : "Icosphere"
        },
        {
            "children" : [
                0
            ],
            "name" : "Light",
            "translation" : [
                0,
                1.2898293733596802,
                0
            ]
        },
        {
            "name" : "Camera",
            "rotation" : [
                0.483536034822464,
                0.33687159419059753,
                -0.20870360732078552,
                0.7804827094078064
            ],
            "translation" : [
                7.358891487121582,
                4.958309173583984,
                6.925790786743164
            ]
        },
        {
            "mesh" : 1,
            "name" : "Cube",
            "scale" : [
                0.5,
                0.5,
                0.5
            ],
            "translation" : [
                -15,
                0,
                16
            ]
        },
        {
            "name" : "X",
            "rotation" : [
                0,
                0,
                -0.7071068286895752,
                0.7071068286895752
            ]
        },
        {
            "name" : "X-",
            "rotation" : [
                0,
                0,
                0.7071068286895752,
                0.7071068286895752
            ]
        },
        {
            "name" : "Y",
            "rotation" : [
                0,
                0,
                -1,
                -4.371138828673793e-08
            ]
        },
        {
            "name" : "Y-"
        },
        {
            "name" : "Z",
            "rotation" : [
                0,
                0.7071068286895752,
                0,
                0.7071068286895752
            ]
        },
        {
            "name" : "Z-",
            "rotation" : [
                1,
                0,
                0,
                -4.371138828673793e-08
            ]
        },
        {
            "children" : [
                4,
                5,
                6,
                7,
                8,
                9
            ],
            "name" : "Projectors",
            "scale" : [
                0.5,
                0.5,
                0.5
            ],
            "translation" : [
                0,
                2,
                0
            ]
        },
        {
            "mesh" : 2,
            "name" : "Sphere",
            "scale" : [
                0.2991504669189453,
                0.2991504669189453,
                0.2991504669189453
            ],
            "translation" : [
                0,
                0.3479462265968323,
                -0.9887498617172241
            ]
        }
    ],
    "materials" : [
        {
            "doubleSided" : true,
            "emissiveFactor" : [
                0,
                0,
                0
            ],
            "name" : "Material.002",
            "pbrMetallicRoughness" : {
                "baseColorTexture" : {
                    "index" : 0,
                    "texCoord" : 0
                },
                "metallicFactor" : 0,
                "roughnessFactor" : 0.5
            }
        },
        {
            "doubleSided" : true,
            "emissiveFactor" : [
                0,
                0,
                0
            ],
            "name" : "Material",
            "pbrMetallicRoughness" : {
                "baseColorTexture" : {
                    "index" : 1,
                    "texCoord" : 0
                },
                "metallicFactor" : 0,
                "roughnessFactor" : 0.5
            }
        },
        {
            "doubleSided" : true,
            "emissiveFactor" : [
                0,
                0,
                0
            ],
            "name" : "Accent",
            "pbrMetallicRoughness" : {
                "baseColorFactor" : [
                    0.800000011920929,
                    0.800000011920929,
                    0.800000011920929,
                    1
                ],
                "metallicFactor" : 0,
                "roughnessFactor" : 0.5
            }
        },
        {
            "doubleSided" : true,
            "emissiveFactor" : [
                0,
                0,
                0
            ],
            "name" : "Walls",
            "pbrMetallicRoughness" : {
                "baseColorTexture" : {
                    "index" : 2,
                    "texCoord" : 0
                },
                "metallicFactor" : 0,
                "roughnessFactor" : 0.5
            }
        },
        {
            "doubleSided" : true,
            "emissiveFactor" : [
                0,
                0,
                0
            ],
            "name" : "Material.001",
            "pbrMetallicRoughness" : {
                "baseColorTexture" : {
                    "index" : 3,
                    "texCoord" : 0
                },
                "metallicFactor" : 0,
                "roughnessFactor" : 0.5
            }
        }
    ],
    "meshes" : [
        {
            "name" : "Icosphere",
            "primitives" : [
                {
                    "attributes" : {
                        "POSITION" : 0,
                        "NORMAL" : 1,
                        "TEXCOORD_0" : 2
                    },
                    "indices" : 3,
                    "material" : 0
                }
            ]
        },
        {
            "name" : "Cube.002",
            "primitives" : [
                {
                    "attributes" : {
                        "POSITION" : 4,
                        "NORMAL" : 5,
                        "TEXCOORD_0" : 6,
                        "TEXCOORD_1" : 7
                    },
                    "indices" : 8,
                    "material" : 1
                },
                {
                    "attributes" : {
                        "POSITION" : 9,
                        "NORMAL" : 10,
                        "TEXCOORD_0" : 11,
                        "TEXCOORD_1" : 12
                    },
                    "indices" : 13,
                    "material" : 2
                },
                {
                    "attributes" : {
                        "POSITION" : 14,
                        "NORMAL" : 15,
                        "TEXCOORD_0" : 16,
                        "TEXCOORD_1" : 17
                    },
                    "indices" : 18,
                    "material" : 3
                }
            ]
        },
        {
            "name" : "Sphere",
            "primitives" : [
                {
                    "attributes" : {
                        "POSITION" : 19,
                        "NORMAL" : 20,
                        "TEXCOORD_0" : 21
                    },
                    "indices" : 22,
                    "material" : 4
                }
            ]
        }
    ],
    "textures" : [
        {
            "source" : 0
        },
        {
            "source" : 1
        },
        {
            "sampler" : 0,
            "source" : 2
        },
        {
            "source" : 3
        }
    ],
    "images" : [
        {
            "bufferView" : 4,
            "mimeType" : "image/png",
            "name" : "Untitled"
        },
        {
            "bufferView" : 10,
            "mimeType" : "image/png",
            "name" : "CityFloors"
        },
        {
            "bufferView" : 21,
            "mimeType" : "image/png",
            "name" : "CityWalls"
        },
        {
            "bufferView" : 26,
            "mimeType" : "image/png",
            "name" : "Untitled"
        }
    ],
    "accessors" : [
        {
            "bufferView" : 0,
            "componentType" : 5126,
            "count" : 60,
            "max" : [
                0.17888504266738892,
                0.20000006258487701,
                0.17012804746627808
            ],
            "min" : [
                -0.17888504266738892,
                -0.20000006258487701,
                -0.17012804746627808
            ],
            "type" : "VEC3"
        },
        {
            "bufferView" : 1,
            "componentType" : 5126,
            "count" : 60,
            "type" : "VEC3"
        },
        {
            "bufferView" : 2,
            "componentType" : 5126,
            "count" : 60,
            "type" : "VEC2"
        },
        {
            "bufferView" : 3,
            "componentType" : 5123,
            "count" : 60,
            "type" : "SCALAR"
        },
        {
            "bufferView" : 5,
            "componentType" : 5126,
            "count" : 5496,
            "max" : [
                63,
                11.519998550415039,
                1
            ],
            "min" : [
                -1,
                0,
                -63
            ],
            "type" : "VEC3"
        },
        {
            "bufferView" : 6,
            "componentType" : 5126,
            "count" : 5496,
            "type" : "VEC3"
        },
        {
            "bufferView" : 7,
            "componentType" : 5126,
            "count" : 5496,
            "type" : "VEC2"
        },
        {
            "bufferView" : 8,
            "componentType" : 5126,
            "count" : 5496,
            "type" : "VEC2"
        },
        {
            "bufferView" : 9,
            "componentType" : 5123,
            "count" : 8226,
            "type" : "SCALAR"
        },
        {
            "bufferView" : 11,
            "componentType" : 5126,
            "count" : 5432,
            "max" : [
                63,
                11.519998550415039,
                1
            ],
            "min" : [
                -1,
                0.43098026514053345,
                -63
            ],
            "type" : "VEC3"
        },
        {
            "bufferView" : 12,
            "componentType" : 5126,
            "count" : 5432,
            "type" : "VEC3"
        },
        {
            "bufferView" : 13,
            "componentType" : 5126,
            "count" : 5432,
            "type" : "VEC2"
        },
        {
            "bufferView" : 14,
            "componentType" : 5126,
            "count" : 5432,
            "type" : "VEC2"
        },
        {
            "bufferView" : 15,
            "componentType" : 5123,
            "count" : 8124,
            "type" : "SCALAR"
        },
        {
            "bufferView" : 16,
            "componentType" : 5126,
            "count" : 5558,
            "max" : [
                63,
                11.479997634887695,
                1
            ],
            "min" : [
                -1,
                0,
                -63
            ],
            "type" : "VEC3"
        },
        {
            "bufferView" : 17,
            "componentType" : 5126,
            "count" : 5558,
            "type" : "VEC3"
        },
        {
            "bufferView" : 18,
            "componentType" : 5126,
            "count" : 5558,
            "type" : "VEC2"
        },
        {
            "bufferView" : 19,
            "componentType" : 5126,
            "count" : 5558,
            "type" : "VEC2"
        },
        {
            "bufferView" : 20,
            "componentType" : 5123,
            "count" : 8124,
            "type" : "SCALAR"
        },
        {
            "bufferView" : 22,
            "componentType" : 5126,
            "count" : 2364,
            "max" : [
                0.9872313737869263,
                0.9975767135620117,
                0.9872314929962158
            ],
            "min" : [
                -0.9872310161590576,
                -0.9975767135620117,
                -0.9872310161590576
            ],
            "type" : "VEC3"
        },
        {
            "bufferView" : 23,
            "componentType" : 5126,
            "count" : 2364,
            "type" : "VEC3"
        },
        {
            "bufferView" : 24,
            "componentType" : 5126,
            "count" : 2364,
            "type" : "VEC2"
        },
        {
            "bufferView" : 25,
            "componentType" : 5123,
            "count" : 11904,
            "type" : "SCALAR"
        }
    ],
    "bufferViews" : [
        {
            "buffer" : 0,
            "byteLength" : 720,
            "byteOffset" : 0
        },
        {
            "buffer" : 0,
            "byteLength" : 720,
            "byteOffset" : 720
        },
        {
            "buffer" : 0,
            "byteLength" : 480,
            "byteOffset" : 1440
        },
        {
            "buffer" : 0,
            "byteLength" : 120,
            "byteOffset" : 1920
        },
        {
            "buffer" : 0,
            "byteLength" : 91,
            "byteOffset" : 2040
        },
        {
            "buffer" : 0,
            "byteLength" : 65952,
            "byteOffset" : 2132
        },
        {
            "buffer" : 0,
            "byteLength" : 65952,
            "byteOffset" : 68084
        },
        {
            "buffer" : 0,
            "byteLength" : 43968,
            "byteOffset" : 134036
        },
        {
            "buffer" : 0,
            "byteLength" : 43968,
            "byteOffset" : 178004
        },
        {
            "buffer" : 0,
            "byteLength" : 16452,
            "byteOffset" : 221972
        },
        {
            "buffer" : 0,
            "byteLength" : 2725,
            "byteOffset" : 238424
        },
        {
            "buffer" : 0,
            "byteLength" : 65184,
            "byteOffset" : 241152
        },
        {
            "buffer" : 0,
            "byteLength" : 65184,
            "byteOffset" : 306336
        },
        {
            "buffer" : 0,
            "byteLength" : 43456,
            "byteOffset" : 371520
        },
        {
            "buffer" : 0,
            "byteLength" : 43456,
            "byteOffset" : 414976
        },
        {
            "buffer" : 0,
            "byteLength" : 16248,
            "byteOffset" : 458432
        },
        {
            "buffer" : 0,
            "byteLength" : 66696,
            "byteOffset" : 474680
        },
        {
            "buffer" : 0,
            "byteLength" : 66696,
            "byteOffset" : 541376
        },
        {
            "buffer" : 0,
            "byteLength" : 44464,
            "byteOffset" : 608072
        },
        {
            "buffer" : 0,
            "byteLength" : 44464,
            "byteOffset" : 652536
        },
        {
            "buffer" : 0,
            "byteLength" : 16248,
            "byteOffset" : 697000
        },
        {
            "buffer" : 0,
            "byteLength" : 3071,
            "byteOffset" : 713248
        },
        {
            "buffer" : 0,
            "byteLength" : 28368,
            "byteOffset" : 716320
        },
        {
            "buffer" : 0,
            "byteLength" : 28368,
            "byteOffset" : 744688
        },
        {
            "buffer" : 0,
            "byteLength" : 18912,
            "byteOffset" : 773056
        },
        {
            "buffer" : 0,
            "byteLength" : 23808,
            "byteOffset" : 791968
        },
        {
            "buffer" : 0,
            "byteLength" : 89,
            "byteOffset" : 815776
        }
    ],
    "samplers" : [
        {
            "magFilter" : 9728,
            "minFilter" : 9984
        }
    ],
    "buffers" : [
        {
            "byteLength" : 815868,
            "uri" : "data:application/octet-stream;base64,"
        }
    ]
}
