<?xml version="1.0" standalone="no"?><!DOCTYPE svg PUBLIC "-//W3C//DTD SVG 1.1//EN" "http://www.w3.org/Graphics/SVG/1.1/DTD/svg11.dtd"><svg t="1734901546812" class="icon" viewBox="0 0 1024 1024" version="1.1" xmlns="http://www.w3.org/2000/svg" p-id="8790" xmlns:xlink="http://www.w3.org/1999/xlink" width="200" height="200"><path d="M845.699681 552.894569c-22.900958 0-40.894569 17.99361-40.894569 40.894568v206.108627c0 3.271565-3.271565 6.543131-6.543131 6.543131H224.102236c-3.271565 0-6.543131-3.271565-6.543131-6.543131V224.102236c0-3.271565 3.271565-6.543131 6.543131-6.543131h206.108627c22.900958 0 40.894569-17.99361 40.894568-40.894568s-17.99361-40.894569-40.894568-40.894569H224.102236c-47.4377 0-86.696486 39.258786-86.696485 86.696486v575.795527c0 47.4377 39.258786 86.696486 86.696485 86.696485h575.795528c47.4377 0 86.696486-39.258786 86.696485-86.696485V593.789137c0-22.900958-17.99361-40.894569-40.894568-40.894568z" fill="#ffffff" p-id="8791"></path><path d="M799.897764 137.405751H621.597444c-22.900958 0-40.894569 17.99361-40.894569 40.894568s17.99361 40.894569 40.894569 40.894569h125.955272L413.853035 544.715655c-16.357827 16.357827-16.357827 40.894569 0 57.252396 8.178914 8.178914 17.99361 11.450479 29.44409 11.450479 9.814696 0 19.629393-3.271565 27.808306-11.450479l335.335464-328.792332v129.226837c0 22.900958 17.99361 40.894569 40.894568 40.894569s40.894569-17.99361 40.894569-40.894569V224.102236c-1.635783-47.4377-40.894569-86.696486-88.332268-86.696485z" fill="#ffffff" p-id="8792"></path></svg>